<svg width="213" height="209" viewBox="0 0 213 209" fill="none" xmlns="http://www.w3.org/2000/svg">
<path d="M0.527377 104.835C-0.209193 90.8392 2.04119 76.8474 7.12897 63.7889C12.2168 50.7303 20.0254 38.9041 30.0361 29.0961C40.0468 19.288 52.0302 11.7228 65.19 6.9031C78.3499 2.08339 92.3847 0.119589 106.362 1.14218C120.302 0.125441 134.298 2.07886 147.427 6.87331C160.555 11.6678 172.517 19.194 182.52 28.9547C192.524 38.7154 200.342 50.4881 205.458 63.4948C210.574 76.5014 212.87 90.4457 212.197 104.406V113.19L208.34 117.26H48.0888C49.6395 131.536 56.4834 144.713 67.2706 154.191C78.0579 163.67 92.0053 168.762 106.362 168.464C117.408 168.561 128.261 165.561 137.689 159.806C147.118 154.05 154.745 145.768 159.708 135.899H207.269C200.496 157.238 186.97 175.797 168.731 188.781C150.493 201.765 128.528 208.469 106.148 207.884C92.2444 208.866 78.2906 206.895 65.2036 202.099C52.1167 197.302 40.193 189.791 30.2166 180.057C20.2402 170.324 12.437 158.589 7.31997 145.624C2.20295 132.659 -0.111961 118.758 0.527377 104.835V104.835ZM161.422 78.483C157.086 67.4104 149.513 57.9022 139.69 51.1998C129.868 44.4975 118.253 40.9123 106.362 40.9123C94.4709 40.9123 82.856 44.4975 73.0337 51.1998C63.2114 57.9022 55.638 67.4104 51.3023 78.483H161.422Z" fill="white"/>
</svg>
