<svg width="206" height="279" viewBox="0 0 206 279" fill="none" xmlns="http://www.w3.org/2000/svg">
<path d="M3.16632 201.313H50.085C53.5406 212.601 60.7148 222.386 70.4399 229.077C80.165 235.768 91.8683 238.97 103.645 238.163C111.338 238.807 119.079 237.718 126.295 234.975C133.512 232.233 140.022 227.907 145.346 222.316C150.67 216.725 154.672 210.011 157.058 202.668C159.444 195.326 160.153 187.542 159.133 179.889V176.89C142.997 192.27 121.65 200.992 99.3603 201.313C86.1131 201.985 72.8743 199.835 60.5209 195.004C48.1676 190.174 36.9817 182.773 27.7043 173.293C18.4269 163.813 11.2697 152.47 6.70702 140.015C2.14433 127.561 0.280255 114.278 1.23823 101.049C0.225249 87.8132 2.03197 74.5133 6.53899 62.0276C11.046 49.5418 18.1508 38.1543 27.3841 28.6173C36.6174 19.0803 47.7689 11.6108 60.1023 6.70216C72.4358 1.79353 85.6703 -0.442514 98.9318 0.141714C121.246 0.541556 142.59 9.33907 158.705 24.7793V5.71197H205.624V179.461C205.624 243.519 167.917 278.654 103.645 278.654C80.2586 280.666 56.9673 273.84 38.3666 259.522C19.7659 245.205 7.20647 224.436 3.16632 201.313V201.313ZM158.705 101.049C159.382 93.3522 158.45 85.5989 155.969 78.2817C153.488 70.9645 149.512 64.2434 144.294 58.5457C139.075 52.848 132.728 48.2983 125.657 45.1857C118.585 42.0731 110.943 40.4657 103.217 40.4657C95.4903 40.4657 87.8483 42.0731 80.7766 45.1857C73.7049 48.2983 67.3582 52.848 62.1396 58.5457C56.9211 64.2434 52.945 70.9645 50.464 78.2817C47.983 85.5989 47.0513 93.3522 47.7283 101.049C47.7283 115.765 53.5744 129.879 63.9804 140.285C74.3865 150.691 88.5003 156.537 103.217 156.537C117.933 156.537 132.047 150.691 142.453 140.285C152.859 129.879 158.705 115.765 158.705 101.049V101.049Z" fill="white"/>
</svg>
