<svg width="213" height="212" viewBox="0 0 213 212" fill="none" xmlns="http://www.w3.org/2000/svg">
<path d="M0.833008 105.835C0.833008 77.7656 11.9834 50.8461 31.8313 30.9983C51.6791 11.1504 78.5987 0 106.668 0C134.737 0 161.656 11.1504 181.504 30.9983C201.352 50.8461 212.502 77.7656 212.502 105.835C212.502 133.904 201.352 160.823 181.504 180.671C161.656 200.519 134.737 211.669 106.668 211.669C78.5987 211.669 51.6791 200.519 31.8313 180.671C11.9834 160.823 0.833008 133.904 0.833008 105.835ZM165.584 105.835C165.584 90.2092 159.377 75.2237 148.328 64.1747C137.279 53.1258 122.293 46.9186 106.668 46.9186C91.0423 46.9186 76.0568 53.1258 65.0079 64.1747C53.9589 75.2237 47.7517 90.2092 47.7517 105.835C47.7517 121.46 53.9589 136.446 65.0079 147.495C76.0568 158.544 91.0423 164.751 106.668 164.751C122.293 164.751 137.279 158.544 148.328 147.495C159.377 136.446 165.584 121.46 165.584 105.835V105.835Z" fill="white"/>
</svg>
